HIERARCHY
ROOT Hips
{
	OFFSET 0.0000 0.0000 0.0000
	CHANNELS 6 Xposition Yposition Zposition Zrotation Xrotation Yrotation
	JOINT Ab
	{
		OFFSET -0.0000 8.0846 -0.0000
		CHANNELS 3 Zrotation Xrotation Yrotation
		JOINT Chest
		{
			OFFSET -0.0000 25.0068 -0.0000
			CHANNELS 3 Zrotation Xrotation Yrotation
			JOINT Neck
			{
				OFFSET -0.0000 25.0068 0.0000
				CHANNELS 3 Zrotation Xrotation Yrotation
				JOINT Head
				{
					OFFSET -0.0000 10.7556 0.0000
					CHANNELS 3 Zrotation Xrotation Yrotation
					End Site
					{
						OFFSET -0.0000 16.6222 0.0000
					}
				}
			}
			JOINT LeftCollar
			{
				OFFSET -0.0000 25.0068 0.0000
				CHANNELS 3 Zrotation Xrotation Yrotation
				JOINT LeftShoulder
				{
					OFFSET 19.5556 -0.0000 0.0000
					CHANNELS 3 Zrotation Xrotation Yrotation
					JOINT LeftElbow
					{
						OFFSET 27.1828 0.0000 0.0000
						CHANNELS 3 Zrotation Xrotation Yrotation
						JOINT LeftWrist
						{
							OFFSET 23.3157 0.0000 0.0000
							CHANNELS 3 Zrotation Xrotation Yrotation
							End Site
							{
								OFFSET 0.0000 -14.6667 0.0000
							}
						}
					}
				}
			}
			JOINT RightCollar
			{
				OFFSET -0.0000 25.0068 0.0000
				CHANNELS 3 Zrotation Xrotation Yrotation
				JOINT RightShoulder
				{
					OFFSET -19.5556 0.0000 0.0000
					CHANNELS 3 Zrotation Xrotation Yrotation
					JOINT RightElbow
					{
						OFFSET -27.1828 0.0000 0.0000
						CHANNELS 3 Zrotation Xrotation Yrotation
						JOINT RightWrist
						{
							OFFSET -23.3157 0.0000 0.0000
							CHANNELS 3 Zrotation Xrotation Yrotation
							End Site
							{
								OFFSET -0.0000 -14.6667 0.0000
							}
						}
					}
				}
			}
		}
	}
	JOINT LeftHip
	{
		OFFSET 11.7333 0.0000 0.0000
		CHANNELS 3 Zrotation Xrotation Yrotation
		JOINT LeftKnee
		{
			OFFSET -0.0000 -40.8688 0.0000
			CHANNELS 3 Zrotation Xrotation Yrotation
			JOINT LeftAnkle
			{
				OFFSET -0.0000 -44.4337 0.0000
				CHANNELS 3 Zrotation Xrotation Yrotation
				End Site
				{
					OFFSET -0.0000 -4.8889 16.6222
				}
			}
		}
	}
	JOINT RightHip
	{
		OFFSET -11.7333 0.0000 0.0000
		CHANNELS 3 Zrotation Xrotation Yrotation
		JOINT RightKnee
		{
			OFFSET -0.0000 -40.8688 0.0000
			CHANNELS 3 Zrotation Xrotation Yrotation
			JOINT RightAnkle
			{
				OFFSET -0.0000 -44.4337 0.0000
				CHANNELS 3 Zrotation Xrotation Yrotation
				End Site
				{
					OFFSET -0.0000 -4.8889 16.6222
				}
			}
		}
	}
}
MOTION
Frames: 18
Frame Time: 0.010000
-1.6568 87.8425 118.9518 4.1160 358.7412 179.4285 3.9385 2.2276 357.9409 345.8403 3.4542 358.4380 0.1994 344.6553 357.9354 19.0370 17.9660 354.8785 340.3264 357.8389 11.6461 301.9851 12.4670 10.0379 20.5959 353.2702 324.4392 81.0464 357.4791 339.6432 23.0538 359.1105 354.9111 54.6263 51.5204 18.0657 337.1340 351.6771 43.3283 273.0214 347.1111 17.6162 3.7798 3.1874 1.8271 359.6667 11.8991 355.0796 345.5768 344.4294 17.2377 5.4811 339.2207 2.1856 359.2046 36.0685 8.8685 354.2440 341.5403 335.1376 
-1.6568 87.8425 118.9518 4.1160 358.7412 179.4285 3.9386 2.2277 357.9407 345.8074 3.5071 358.4541 0.3921 344.0394 358.3177 19.0192 18.4542 355.1742 340.3686 357.8129 12.5853 301.9556 12.5212 9.4384 20.4291 353.3471 324.0848 81.9312 358.0128 339.7605 22.9465 359.0852 355.4236 54.6557 51.7871 18.1464 337.6161 351.4710 43.3849 273.3523 346.9994 18.2687 3.7798 3.1874 1.8272 359.6667 11.8991 355.0796 345.5767 344.4294 17.2377 5.4811 339.2208 2.1856 359.2046 36.0686 8.8685 354.2441 341.5403 335.1375 
-1.6264 87.7581 117.9402 4.4453 359.0934 179.9030 4.1894 2.4374 356.9723 345.5826 3.4388 357.4853 0.6526 344.3639 358.3858 18.5288 17.9606 355.3422 340.2384 357.9328 11.0237 302.2220 11.2669 8.6405 19.3955 353.8515 324.1113 82.8671 357.4156 339.1687 23.2297 358.9051 353.9746 58.5194 48.7036 13.2337 340.5854 353.0383 43.6740 271.5863 346.4981 22.4863 4.0936 4.6409 1.4780 359.7662 10.9284 355.0758 345.5245 344.4299 17.1900 5.6630 338.6395 2.7767 0.0610 35.8151 7.3360 353.8180 341.7338 335.0876 
-1.6123 87.7114 117.5048 4.5789 359.0635 180.0928 3.9903 2.5120 356.6293 345.9752 3.3276 357.1220 0.9970 343.7771 358.8584 18.1434 18.1765 355.8257 339.9616 357.9270 11.5631 302.2764 12.4411 7.1087 19.8817 353.5824 324.6877 82.6865 357.2307 340.0732 22.9961 358.8388 353.8454 60.1496 47.5828 11.0385 342.0419 353.4535 43.6310 271.4773 346.3905 24.6424 4.2127 5.0780 1.2920 359.8312 10.5279 355.0801 345.5014 344.4276 17.2003 5.7563 337.9799 3.1378 0.3217 35.9365 7.1189 354.3486 341.8491 335.2285 
-1.6399 87.6428 117.0872 4.6743 358.8678 180.2929 3.8131 2.4866 356.3043 346.3960 3.1040 356.7534 1.2435 343.6412 359.0564 17.5991 17.9961 356.0801 339.6558 357.9354 11.1835 302.3851 12.6147 6.3278 19.7042 353.7549 325.0334 83.4885 356.3575 339.8872 22.7777 358.7598 353.3644 61.6440 46.6683 8.8031 342.9078 353.6478 43.1319 270.9276 345.9403 25.4958 4.2375 5.3351 1.0456 359.9352 10.1329 355.1369 345.4658 344.3761 17.1978 5.7250 337.1299 3.7434 0.9127 35.9808 6.5027 354.3478 341.9202 335.2950 
-1.6712 87.5605 116.6687 4.6657 358.8048 180.3904 3.3368 2.6847 356.1092 347.3634 2.7505 356.4906 0.8527 343.7336 359.1286 17.4839 17.5551 356.3018 339.3077 357.9848 10.4081 302.2228 11.5439 6.0245 18.9178 354.0340 324.0409 83.9559 357.1127 339.2041 22.2111 358.7118 352.9140 63.0225 45.4536 6.5425 343.8390 354.0263 42.5116 270.7815 344.9668 27.4468 4.1459 5.7588 0.8568 0.0592 9.7223 355.1223 345.4790 344.3100 17.2336 5.6445 336.3168 4.0404 1.1250 36.3490 5.8527 353.8633 341.9090 335.7356 
-1.6318 87.5027 116.2383 4.8757 358.7860 180.5328 3.1894 2.8626 355.8403 347.9026 2.6640 356.2005 1.2539 343.5322 359.2708 16.9310 17.2044 356.5120 339.2290 358.1172 9.5225 302.2330 9.8293 5.5924 17.5496 354.4706 322.5672 84.4845 358.0309 337.9655 21.8680 358.6466 352.4706 64.4988 43.6157 4.4159 344.7945 354.4308 42.2516 270.9476 345.1894 29.1704 4.4058 6.2537 0.5122 0.0233 9.2806 355.2531 345.5215 344.2506 17.2363 5.8632 335.6016 4.4953 1.3882 36.3649 5.0906 354.0052 342.0338 336.0038 
-1.6318 87.5027 116.2383 4.8757 358.7861 180.5328 3.1894 2.8626 355.8403 347.8886 2.6789 356.2045 1.3497 343.3613 359.4103 16.9102 17.3486 356.6263 339.2401 358.1538 9.8340 302.2260 9.8274 5.3474 17.4880 354.2344 322.4637 84.3134 358.0477 337.7513 21.8374 358.6107 352.6607 64.5678 43.7013 4.3522 345.0083 354.3663 42.2365 271.0666 345.1376 29.4285 4.4058 6.2537 0.5122 0.0233 9.2806 355.2531 345.5214 344.2506 17.2362 5.8632 335.6016 4.4953 1.3882 36.3649 5.0906 354.0052 342.0338 336.0038 
-1.6090 87.4316 115.8215 5.0315 358.7290 180.6385 2.9918 3.0331 355.6386 348.4683 2.6666 355.9852 1.7828 343.1018 359.4178 16.2888 16.9768 356.7002 339.3934 358.3175 8.5596 301.7633 7.2338 5.1647 15.8995 354.8332 320.9125 84.4756 358.8991 335.5418 21.5657 358.5622 352.1393 65.7387 42.0178 2.2727 345.4213 354.5668 41.5087 271.0746 344.1978 30.6860 4.5893 6.7141 0.2081 0.0107 8.8242 355.3078 345.5081 344.1786 17.2814 6.0158 334.7752 4.8510 1.5171 36.5174 5.5558 354.3004 342.4007 335.5647 
-1.5684 87.3504 115.4046 5.2133 358.6406 180.8976 2.7953 3.1674 355.3900 349.1154 2.7079 355.7245 2.3327 342.7739 359.5286 15.7684 16.6771 356.8434 339.3061 358.4884 7.2983 302.0611 4.7787 4.9893 13.6721 355.6701 319.1601 85.0190 359.5301 333.6556 21.2419 358.5126 351.6144 66.3896 40.4844 0.5993 346.0348 354.9137 40.8684 270.7596 343.7695 31.2968 4.8567 7.1977 359.0488 359.8506 8.2072 356.1157 345.9023 344.3900 17.3711 6.1421 333.9411 5.0881 1.6457 36.4973 5.2428 354.2639 342.8602 335.6214 
-1.5693 87.2646 115.0217 5.3339 358.4860 181.1217 2.9631 3.5773 354.8582 349.4108 2.1083 355.1425 2.4227 342.7236 359.7248 15.8119 16.4766 357.0650 339.1556 358.5250 7.7064 301.7379 9.8468 3.1984 16.0936 354.0228 321.1916 84.6776 358.1691 337.1432 21.0232 358.4538 351.2811 66.9188 38.9123 358.6799 346.8183 355.3394 40.1539 270.3106 343.2564 32.2416 4.9776 7.4658 358.6656 359.8977 7.8452 356.2410 345.9438 344.2989 17.3341 6.1533 332.9548 5.3391 1.8859 36.6834 4.9904 354.8237 343.3904 335.5839 
-1.5722 87.1853 114.6270 5.3780 358.3240 181.1147 2.8578 3.8776 354.6281 349.8764 1.8272 354.8854 3.0321 342.3410 0.0706 15.3994 16.4425 357.3936 339.0627 358.5322 7.9749 301.9854 12.3837 1.6046 17.0963 353.6897 321.8137 84.1117 357.9478 338.7538 20.7271 358.4331 351.1651 67.1768 37.5459 357.1006 347.4445 355.6455 39.4178 270.1333 342.8711 32.8400 5.0140 7.8125 358.5550 359.9204 7.4096 356.2892 345.9325 344.2223 17.3176 6.1845 331.9060 5.8315 2.0811 36.8792 4.7632 354.8022 344.2851 335.9287 
-1.5886 87.1071 114.2791 5.3904 357.8908 181.3563 2.7414 3.9463 354.3224 350.4277 1.5814 354.5472 3.4293 342.0474 0.1793 15.0734 16.3085 357.4663 338.9915 358.5623 7.6839 302.2411 14.2386 0.4357 17.4756 353.6879 321.8453 84.3227 357.7789 339.7822 20.3905 358.4018 350.7154 67.2071 36.2069 355.7144 347.9261 355.8647 38.7740 269.8687 342.5785 33.0650 5.0402 7.7088 358.2541 359.9194 7.1629 356.3240 345.9975 344.1288 17.3108 6.0460 330.5540 6.0808 2.2599 37.1276 4.2685 355.5886 344.8850 336.4521 
-1.6320 87.0358 113.9174 5.3170 357.5667 181.5665 2.6299 4.1937 354.0192 350.9089 1.2724 354.2150 3.9866 341.7289 0.3856 14.6985 16.3122 357.6387 338.8640 358.5734 7.6635 303.0713 16.3604 359.0016 16.7853 354.1467 321.5240 86.7277 358.0333 340.7730 20.0842 358.3632 350.3262 67.0124 34.9153 354.4181 348.4966 356.1381 38.1398 269.6665 341.9670 33.2984 4.9421 7.7260 358.0040 359.9462 6.9271 356.4260 346.0313 344.0808 17.2592 5.7590 329.2715 6.8509 3.0541 37.4012 3.1020 355.9023 345.4142 336.9128 
-1.6697 86.9421 113.4563 5.2548 357.8417 181.7593 2.2058 4.7138 354.1354 351.6954 1.7539 354.3544 5.2007 341.0457 0.5376 13.5437 16.2262 357.7056 338.9314 358.6451 7.0030 303.5891 17.5886 357.5922 16.8159 354.0553 321.0711 85.6844 357.9254 340.6345 19.5912 358.3344 349.7545 66.7376 33.4848 353.6363 349.2193 356.4704 37.9012 268.8820 342.3921 33.6800 4.9349 8.4602 357.6674 359.8865 6.5986 356.4428 346.0863 343.9659 17.3210 5.4350 328.8331 7.3899 3.7163 37.2023 1.9492 356.4279 345.9746 337.2305 
-1.7922 86.8589 112.8744 5.0916 356.9836 182.3388 2.3743 5.4543 353.3541 352.6440 0.8023 353.5130 5.5361 340.6982 0.4036 13.0052 16.0754 357.5977 338.7796 358.7270 6.2999 305.5686 24.8227 354.9097 18.8941 352.8965 321.1694 85.0462 358.0759 344.1931 18.9842 358.2545 348.5101 65.5377 31.5287 351.4234 350.2246 356.9306 37.3892 268.7896 342.1853 35.7683 4.7405 7.8993 357.2359 359.9237 6.5625 356.4127 347.7331 343.9101 17.6453 4.6498 325.8611 6.8286 3.9964 38.0065 1.4780 356.8942 347.0092 338.2492 
-1.7922 86.8589 112.8744 5.0916 356.9837 182.3388 2.3743 5.4543 353.3539 352.5708 0.8326 353.5213 6.0111 340.4873 0.8590 12.9569 16.3851 357.9812 338.8522 358.6868 7.1233 305.7227 24.7932 354.4510 19.1883 352.9509 321.1153 85.0957 358.1618 344.5432 18.9657 358.2131 349.1355 65.6845 31.6800 351.2427 350.4808 356.9282 37.2744 268.8430 342.0940 36.0164 4.7405 7.8993 357.2359 359.9237 6.5625 356.4127 347.7331 343.9101 17.6453 4.6498 325.8611 6.8286 3.9964 38.0064 1.4779 356.8942 347.0092 338.2492 
-1.8615 86.7993 112.5120 4.9692 356.8471 182.6278 2.6165 6.2268 352.9410 352.8462 0.1632 353.0900 6.0968 340.5276 0.7699 12.8747 16.1016 357.8917 338.8321 358.6497 7.1590 306.8445 28.1052 352.9423 20.4986 352.3585 321.1790 84.2122 357.9733 345.7025 18.7372 358.1775 348.5339 65.0179 30.9523 350.0864 350.8739 357.0480 37.3480 269.0321 342.0891 35.5103 4.6112 7.9750 357.1376 359.9474 6.5189 356.2794 347.7162 343.7403 17.5495 4.1623 324.8242 6.7710 4.3347 38.1660 0.8162 357.3925 347.5026 338.8920 
